<svg xmlns="http://www.w3.org/2000/svg" viewBox="0 0 434.26 170.08" width="434.26" height="170.08"><path fill="#4a0053" d="M37.84,121.12C59.55,83.48,107.75,0,107.75,0H71.67C58.92,0,43.26,9,36.89,20.08,36.89,20.08,12,63,6.27,73-.85,85.4-2.72,100.25,5,119.81c1.81,4.6,9.4,23.62,9.94,24.8a46.29,46.29,0,0,0,14.34,17.55l.22.19c6.4,4.77,15.46,7.73,25.77,7.73h39c12.76,0,28.41-9,34.79-20.09l16.69-28.87S41.87,121.12,37.84,121.12Z"/><path fill="#4a0053" d="M275.91,21.14l.63-1.06L288.13,0H252.06c-12.76,0-28.41,9-34.79,20.08l-.65,1.14c-6.38,11-11.58,20-11.58,20h36.08C253.87,41.23,269.53,32.19,275.91,21.14Z"/><path fill="#4a0053" d="M184.63,76.77l-53.95,93.31h36.08c12.75,0,28.41-9,34.78-20.08l54-93.3H219.41C206.66,56.7,191,65.73,184.63,76.77Z"/><path fill="#4a0053" d="M398.19,56.7c-12.76,0-28.41,9-34.79,20.06l-39.08,67.75c-2.68-20.93-8.16-66.35-8.16-66.35-1.94-13.61-12-21.46-26.48-21.46H261.62l10.61,87.51c1.55,14.46,13,25.13,24.19,25.83h0c.28,0,.64,0,1,0h48.26c12.74,0,28.37-9,34.74-20L434.26,56.7Z"/></svg>